<svg xmlns="http://www.w3.org/2000/svg" viewBox="0 0 320 272" width="320" height="272">
<g transform="translate(80 -24) scale(1.6)"><path d="M24 28 L50 76 L76 28" fill="none" stroke="#5B4BD6" stroke-width="16" stroke-linecap="round" stroke-linejoin="round"/><circle cx="50" cy="28" r="8" fill="#0E9F6B"/></g>
<path d="M80.07 159.30L98.52 159.30L82.97 212.40L58.82 212.40L42.97 159.30L61.37 159.30L70.87 201.35L80.07 159.30ZM107.17 235.55L107.17 235.55Q104.47 235.55 102.42 235.38Q100.37 235.20 99.82 235L99.82 235L99.82 221.85Q100.47 222.15 102.15 222.30Q103.82 222.45 105.72 222.45L105.72 222.45Q107.97 222.45 109.85 221.58Q111.72 220.70 113.12 219.13Q114.52 217.55 115.27 215.30L115.27 215.30L115.97 213.25L97.67 159.30L116.27 159.30L125.72 197.95L134.77 159.30L153.07 159.30L135.27 214.40Q133.02 221.20 129.80 225.93Q126.57 230.65 121.22 233.10Q115.87 235.55 107.17 235.55ZM190.32 213.60L190.32 213.60Q184.03 213.60 178.82 210.15L178.82 210.15Q176.28 208.50 174.28 206.30L174.28 206.30L174.28 212.40L156.43 212.40L156.43 134.25L174.28 134.25L174.28 165.20Q176.28 163.10 178.82 161.55L178.82 161.55Q184.03 158.30 190.32 158.30L190.32 158.30Q196.78 158.30 202.45 161.45Q208.13 164.60 211.65 170.68Q215.18 176.75 215.18 185.55L215.18 185.55Q215.18 194.80 211.72 201.03Q208.28 207.25 202.63 210.43Q196.97 213.60 190.32 213.60ZM174.28 183.85L174.28 187.25Q174.28 190.75 175.90 193.28Q177.53 195.80 180.10 197.13Q182.68 198.45 185.43 198.45L185.43 198.45Q189.88 198.45 193.32 195.35Q196.78 192.25 196.78 185.55Q196.78 178.85 193.35 175.88Q189.93 172.90 185.43 172.90L185.43 172.90Q182.72 172.90 180.15 174.18Q177.57 175.45 175.93 177.88Q174.28 180.30 174.28 183.85L174.28 183.85ZM238.47 213.55L238.47 213.55Q232.72 213.55 228.22 211.72Q223.72 209.90 221.13 206.40Q218.53 202.90 218.53 197.90L218.53 197.90Q218.53 192.15 221.78 188.57Q225.03 185 230.22 183.13Q235.43 181.25 241.22 180.70L241.22 180.70Q249.63 179.90 252.70 179.28Q255.78 178.65 255.78 177.10L255.78 177.10L255.78 177Q255.78 174.60 253.25 173.10Q250.72 171.60 246.32 171.60L246.32 171.60Q241.68 171.60 239.30 173.28Q236.93 174.95 236.93 178.35L236.93 178.35L219.32 178.35Q219.32 171.80 222.95 167.32Q226.57 162.85 232.72 160.55Q238.88 158.25 246.47 158.25L246.47 158.25Q253.68 158.25 259.85 160.40Q266.02 162.55 269.85 166.95Q273.68 171.35 273.68 178.15L273.68 178.15L273.68 199.95Q273.68 202.05 273.77 204.03Q273.88 206 274.32 207.65L274.32 207.65Q274.88 209.45 275.70 210.70Q276.52 211.95 277.02 212.40L277.02 212.40L259.57 212.40Q259.18 212 258.40 210.85Q257.63 209.70 257.07 208.20L257.07 208.20Q256.88 207.55 256.68 206.90L256.68 206.90Q255.93 207.70 255.07 208.40L255.07 208.40Q251.88 210.90 247.57 212.22Q243.28 213.55 238.47 213.55ZM243.57 200.60L243.57 200.60Q246.68 200.60 249.53 199.35Q252.38 198.10 254.22 195.35L254.22 195.35Q255.72 193.10 256.02 189.65L256.02 189.65Q254.63 190 253.07 190.25L253.07 190.25Q248.88 191.05 244.88 191.45L244.88 191.45Q240.63 191.90 238.53 192.90Q236.43 193.90 236.43 196.20L236.43 196.20Q236.43 198.40 238.25 199.50Q240.07 200.60 243.57 200.60Z" fill="#060E20"/>
<path d="M41.10 263.40L38.90 263.40L41.57 252.20L45.54 252.20L48.21 263.40L46.00 263.40L45.46 261L41.65 261L41.10 263.40ZM43.41 253.26L42.10 258.98L44.99 258.98L43.70 253.26L43.41 253.26ZM58.90 263.40L53.98 263.40L53.98 261.38L55.04 261.38L55.04 254.22L53.98 254.22L53.98 252.20L58.90 252.20Q60.51 252.20 61.36 253.03Q62.21 253.86 62.21 255.11L62.21 255.11L62.21 255.30Q62.21 256.26 61.67 256.84Q61.14 257.42 60.32 257.64L60.32 257.64L60.32 257.93Q61.14 258.14 61.67 258.74Q62.21 259.34 62.21 260.28L62.21 260.28L62.21 260.47Q62.21 261.74 61.36 262.57Q60.51 263.40 58.90 263.40L58.90 263.40ZM57.15 254.22L57.15 256.78L58.69 256.78Q59.36 256.78 59.78 256.49Q60.19 256.20 60.19 255.54L60.19 255.54L60.19 255.45Q60.19 254.79 59.78 254.50Q59.36 254.22 58.69 254.22L58.69 254.22L57.15 254.22ZM57.15 258.79L57.15 261.38L58.69 261.38Q59.36 261.38 59.78 261.09Q60.19 260.79 60.19 260.14L60.19 260.14L60.19 260.04Q60.19 259.38 59.78 259.09Q59.36 258.79 58.69 258.79L58.69 258.79L57.15 258.79ZM76.48 263.40L68.99 263.40L68.99 261.38L71.68 261.38L71.68 254.22L68.99 254.22L68.99 252.20L76.48 252.20L76.48 254.22L73.79 254.22L73.79 261.38L76.48 261.38L76.48 263.40ZM87.23 263.40L83.17 263.40L83.17 261.37L84.22 261.37L84.22 254.22L83.17 254.22L83.17 252.20L87.23 252.20Q89.30 252.20 90.31 253.18Q91.33 254.15 91.33 256.17L91.33 256.17L91.33 259.43Q91.33 261.45 90.31 262.42Q89.30 263.40 87.23 263.40L87.23 263.40ZM86.34 254.22L86.34 261.38L87.23 261.38Q88.34 261.38 88.78 260.86Q89.22 260.34 89.22 259.24L89.22 259.24L89.22 256.17Q89.22 255.21 88.78 254.71Q88.34 254.22 87.23 254.22L87.23 254.22L86.34 254.22ZM101.76 263.62L101.76 263.62Q100.08 263.62 99.04 262.70Q98.00 261.78 98.00 260.04L98.00 260.04L98.00 258.98L100.11 258.98L100.11 260.04Q100.11 260.78 100.54 261.21Q100.96 261.64 101.70 261.64L101.70 261.64Q102.40 261.64 102.79 261.22Q103.18 260.81 103.18 260.04L103.18 260.04L103.18 254.18L102.03 254.18L102.03 252.20L106.26 252.20L106.26 254.18L105.30 254.18L105.30 260.04Q105.30 261.77 104.34 262.70Q103.39 263.62 101.76 263.62ZM114.06 263.40L111.86 263.40L114.53 252.20L118.50 252.20L121.17 263.40L118.96 263.40L118.42 261L114.61 261L114.06 263.40ZM116.37 253.26L115.06 258.98L117.95 258.98L116.66 253.26L116.37 253.26ZM129.30 263.40L127.18 263.40L127.18 252.20L131.31 252.20L132.62 262.34L132.91 262.34L132.91 252.20L135.02 252.20L135.02 263.40L130.90 263.40L129.58 253.26L129.30 253.26L129.30 263.40ZM160.29 259.32L160.29 259.32Q159.66 259.32 159.22 258.88Q158.77 258.44 158.77 257.80L158.77 257.80Q158.77 257.16 159.22 256.72Q159.66 256.28 160.29 256.28L160.29 256.28Q160.91 256.28 161.36 256.72Q161.81 257.16 161.81 257.80L161.81 257.80Q161.81 258.44 161.36 258.88Q160.91 259.32 160.29 259.32ZM189.50 263.62L189.50 263.62Q187.58 263.62 186.46 262.45Q185.34 261.27 185.34 259.05L185.34 259.05L185.34 256.55Q185.34 254.39 186.46 253.18Q187.58 251.98 189.50 251.98L189.50 251.98Q191.50 251.98 192.55 253.10Q193.60 254.22 193.60 256.14L193.60 256.14L193.60 256.42L191.49 256.42L191.49 256.14Q191.49 255.61 191.31 255.09Q191.14 254.57 190.70 254.23Q190.27 253.90 189.50 253.90L189.50 253.90Q188.80 253.90 188.34 254.24Q187.89 254.58 187.67 255.15Q187.46 255.72 187.46 256.39L187.46 256.39L187.46 259.21Q187.46 260.30 187.92 261Q188.38 261.70 189.50 261.70L189.50 261.70Q190.32 261.70 190.75 261.38Q191.18 261.06 191.34 260.55Q191.49 260.04 191.49 259.46L191.49 259.46L191.49 259.18L193.60 259.18L193.60 259.46Q193.60 261.45 192.55 262.54Q191.50 263.62 189.50 263.62ZM207.74 263.40L200.48 263.40L200.48 252.20L207.55 252.20L207.55 254.22L202.59 254.22L202.59 256.78L207.36 256.78L207.36 258.79L202.59 258.79L202.59 261.38L207.74 261.38L207.74 263.40ZM233.41 263.62L233.41 263.62Q231.94 263.62 230.94 263.09Q229.94 262.55 229.43 261.62Q228.93 260.70 228.93 259.53L228.93 259.53L228.93 259.05L231.04 259.05L231.04 259.43Q231.04 260.44 231.63 261.04Q232.22 261.64 233.44 261.64L233.44 261.64Q234.40 261.64 234.86 261.22Q235.33 260.81 235.33 260.23L235.33 260.23Q235.33 259.86 235.15 259.55Q234.98 259.24 234.51 259.01Q234.05 258.78 233.18 258.63L233.18 258.63Q232.06 258.44 231.19 258.07Q230.32 257.70 229.82 257.04Q229.31 256.38 229.31 255.27L229.31 255.27L229.31 255.18Q229.31 254.26 229.79 253.54Q230.27 252.81 231.14 252.39Q232.02 251.98 233.18 251.98L233.18 251.98Q234.51 251.98 235.42 252.46Q236.34 252.94 236.81 253.73Q237.28 254.52 237.28 255.43L237.28 255.43L237.28 256.01L235.17 256.01L235.17 255.62Q235.17 254.95 234.65 254.46Q234.13 253.96 233.18 253.96L233.18 253.96Q232.40 253.96 231.93 254.29Q231.46 254.62 231.46 255.18L231.46 255.18Q231.46 255.75 231.96 256.10Q232.46 256.46 233.86 256.71L233.86 256.71Q235.62 257.02 236.54 257.78Q237.47 258.54 237.47 260.01L237.47 260.01L237.47 260.20Q237.47 261.75 236.38 262.69Q235.30 263.62 233.41 263.62ZM247.84 263.62L247.84 263.62Q245.92 263.62 244.82 262.45Q243.71 261.27 243.71 259.05L243.71 259.05L243.71 256.55Q243.71 254.39 244.82 253.18Q245.92 251.98 247.84 251.98L247.84 251.98Q249.76 251.98 250.86 253.18Q251.97 254.39 251.97 256.55L251.97 256.55L251.97 259.05Q251.97 261.27 250.86 262.45Q249.76 263.62 247.84 263.62ZM247.84 261.70L247.84 261.70Q248.99 261.70 249.42 261Q249.86 260.30 249.86 259.18L249.86 259.18L249.86 256.42Q249.86 255.72 249.65 255.14Q249.44 254.57 249.00 254.23Q248.56 253.90 247.84 253.90L247.84 253.90Q247.12 253.90 246.67 254.23Q246.22 254.57 246.02 255.14Q245.82 255.72 245.82 256.42L245.82 256.42L245.82 259.18Q245.82 260.30 246.26 261Q246.69 261.70 247.84 261.70ZM266.18 263.40L258.69 263.40L258.69 261.38L261.38 261.38L261.38 254.22L258.69 254.22L258.69 252.20L266.18 252.20L266.18 254.22L263.49 254.22L263.49 261.38L266.18 261.38L266.18 263.40ZM275.41 263.40L273.30 263.40L273.30 252.20L277.58 252.20Q278.74 252.20 279.52 252.62Q280.30 253.03 280.70 253.73Q281.10 254.42 281.10 255.29L281.10 255.29L281.10 255.67Q281.10 256.36 280.73 256.96Q280.35 257.56 279.60 257.88L279.60 257.88L279.60 258.17Q280.16 258.23 280.49 258.60Q280.82 258.97 280.82 259.53L280.82 259.53L280.82 263.40L278.70 263.40L278.70 260.04Q278.70 259.66 278.50 259.42Q278.30 259.18 277.84 259.18L277.84 259.18L275.41 259.18L275.41 263.40ZM275.41 254.22L275.41 257.16L277.42 257.16Q278.19 257.16 278.59 256.79Q278.99 256.42 278.99 255.78L278.99 255.78L278.99 255.59Q278.99 255.03 278.59 254.62Q278.19 254.22 277.42 254.22L277.42 254.22L275.41 254.22Z" fill="#4A5170"/>
</svg>
